<svg width="40" height="40" viewBox="0 0 40 40" fill="none" xmlns="http://www.w3.org/2000/svg">
<path opacity="0.5" d="M29.9998 22V20C29.9998 19.161 29.9868 17.665 29.9738 17H10.0058C9.99278 17.665 10.0058 19.161 10.0058 20V22C10.0058 25.771 10.0058 27.657 11.1758 28.828C12.3488 30 14.2338 30 18.0038 30H22.0038C25.7738 30 27.6578 30 28.8298 28.828C29.9998 27.657 29.9998 25.771 29.9998 22Z" fill="#637381"/>
<path d="M14.96 10C15.378 10 15.716 10.31 15.716 10.692V12.09C16.386 12.078 17.138 12.078 17.984 12.078H22.016C22.862 12.078 23.613 12.078 24.284 12.09V10.692C24.284 10.31 24.622 10 25.04 10C25.458 10 25.796 10.31 25.796 10.692V12.15C27.246 12.256 28.199 12.518 28.899 13.158C29.599 13.799 29.884 14.671 30 16V17H10V16C10.116 14.671 10.401 13.8 11.101 13.158C11.801 12.518 12.753 12.256 14.204 12.15V10.692C14.204 10.31 14.543 10 14.96 10Z" fill="#637381"/>
<path d="M26 24.5C26 24.8978 25.842 25.2794 25.5607 25.5607C25.2794 25.842 24.8978 26 24.5 26C24.1022 26 23.7206 25.842 23.4393 25.5607C23.158 25.2794 23 24.8978 23 24.5C23 24.1022 23.158 23.7206 23.4393 23.4393C23.7206 23.158 24.1022 23 24.5 23C24.8978 23 25.2794 23.158 25.5607 23.4393C25.842 23.7206 26 24.1022 26 24.5Z" fill="#637381"/>
</svg>
